:SAMPLES-PER-SECOND 24
:FULLY-SPECIFIED
:DEGREES
130
root  -1.96982 41.7767 12.7196 137.719 31.0126 140.846
RightUpLeg  -0.0601585 -5.19979 -30.9817
RightLeg  30.3229 10.8421 6.47634
RightFoot  7.51339 0.569398 -2.98629
RightToes  -1.74623e-010 0 -2.59999e-017
Spine  4.4192 3.65209 5.51104
Spine1  13.9812 7.99546 -13.5137
HEad  8.48423 27.4581 -16.348
LeftShoulder1  2.23001 -3.39927 -26.174
LeftArm  -6.68998 -13.31 -33.4582
LeftForeArm  147.073 -62.2684 -158.985
LeftHand  -0.0902723 4.7838 14.8854
RightShoulder  3.02978 5.97146 25.9398
RightArm  24.7541 22.6812 60.6668
RightForeArm  67.9658 78.7339 59.0186
RightHand  -0.285243 2.16097 -4.56931
LeftUpLeg  -67.1251 26.6717 7.92777
LeftLeg  112.343 5.03557 -11.6183
LeftFoot  23.3184 1.33275 -4.71785
LeftToes  -6.27559e-011 -2.10356e-011 8.24929e-012
131
root  -1.52602 41.0087 13.8166 145.011 25.0258 152.243
RightUpLeg  6.86644 3.20426 -24.3885
RightLeg  26.4275 15.7713 8.1754
RightFoot  -0.339928 -0.103643 1.16406
RightToes  -1.74623e-010 0 -2.59999e-017
Spine  3.79428 2.19533 1.0274
Spine1  14.2474 4.26334 -6.83782
HEad  8.61684 23.1909 -11.3943
LeftShoulder1  2.028 -3.26209 -23.733
LeftArm  -2.63126 -20.1845 -41.5537
LeftForeArm  145.386 -64.4895 -156.798
LeftHand  -0.111451 4.64 15.6817
RightShoulder  2.98681 5.89546 25.7309
RightArm  21.4112 20.2506 57.1269
RightForeArm  79.8286 79.7675 73.9057
RightHand  -0.158733 -0.60771 -3.78925
LeftUpLeg  -64.3203 19.0511 2.84043
LeftLeg  109.147 2.92828 -8.29477
LeftFoot  17.3219 0.405352 -1.99461
LeftToes  -6.27559e-011 -2.10356e-011 8.24929e-012
132
root  -1.23939 40.1225 14.6928 151.935 20.8164 161.632
RightUpLeg  8.17632 -0.746909 -15.9745
RightLeg  23.1414 13.0912 5.86955
RightFoot  -5.63811 -0.035105 -0.273721
RightToes  -1.74623e-010 0 -2.59999e-017
Spine  1.79695 1.27241 2.68387
Spine1  14.3832 2.86773 -4.2139
HEad  7.11322 18.551 -7.17265
LeftShoulder1  1.75995 -2.83285 -21.3933
LeftArm  1.33013 -28.3946 -49.1319
LeftForeArm  145.649 -66.8741 -154.283
LeftHand  -0.0783935 4.86852 14.6701
RightShoulder  2.93351 5.68309 25.8954
RightArm  18.3708 17.765 53.8573
RightForeArm  103.138 80.0144 98.2262
RightHand  -0.0894867 -2.30943 -2.95988
LeftUpLeg  -58.5651 15.0767 1.12777
LeftLeg  105.511 1.3025 -5.05235
LeftFoot  14.5301 0.00575225 -0.418902
LeftToes  -6.27559e-011 -2.10356e-011 8.24929e-012
133
root  -1.11582 39.4075 15.7562 157.518 18.8801 167.609
RightUpLeg  3.15403 -6.57546 -8.94947
RightLeg  24.7142 8.36005 3.95753
RightFoot  -6.47175 0.162474 -4.84424
RightToes  -1.74623e-010 0 -2.59999e-017
Spine  -1.31919 1.30845 6.09762
Spine1  17.5529 3.60689 -5.41199
HEad  3.98113 15.1978 -5.06024
LeftShoulder1  1.62469 -2.46281 -20.8202
LeftArm  4.53648 -34.871 -55.3765
LeftForeArm  148.075 -67.6414 -153.656
LeftHand  0.00945242 5.60411 13.5078
RightShoulder  3.00374 5.55625 27.1685
RightArm  17.5168 17.3444 50.4142
RightForeArm  114.214 79.4392 110.375
RightHand  -0.0558692 -2.54001 -1.75212
LeftUpLeg  -49.5245 15.2365 0.69114
LeftLeg  99.2334 0.132595 -2.06001
LeftFoot  14.3256 0.323676 -1.80787
LeftToes  -6.27559e-011 -2.10356e-011 8.24929e-012
134
root  -1.023 39.1316 16.7111 160.356 15.6539 171.326
RightUpLeg  0.15227 -10.1745 -5.61065
RightLeg  25.7504 7.16309 3.52073
RightFoot  -5.57561 0.211321 -4.95334
RightToes  -1.74623e-010 0 -2.59999e-017
Spine  -2.11431 0.827801 5.24524
Spine1  19.8349 2.89588 -3.8199
HEad  1.67941 13.9171 -4.51187
LeftShoulder1  1.69939 -2.55915 -21.6711
LeftArm  8.14349 -35.1429 -60.3341
LeftForeArm  150.846 -66.857 -154.914
LeftHand  0.0341822 5.79162 14.4382
RightShoulder  3.11322 5.63984 28.0935
RightArm  18.8084 16.2945 47.7305
RightForeArm  106.115 79.7373 103.586
RightHand  -0.0123429 -3.90191 1.03181
LeftUpLeg  -35.3253 15.7396 0.9942
LeftLeg  89.1217 -0.27486 0.571781
LeftFoot  16.1649 1.01753 -4.56173
LeftToes  -6.27559e-011 -2.10356e-011 8.24929e-012
135
root  -0.950661 39.0927 17.4663 162.421 10.6531 174.176
RightUpLeg  -0.934771 -14.7491 -3.99302
RightLeg  24.2458 7.09523 3.24501
RightFoot  -4.85306 0.166187 -3.50297
RightToes  -1.74623e-010 0 -2.59999e-017
Spine  -1.44762 -0.228656 1.94565
Spine1  18.9648 0.812986 -0.131735
HEad  1.08373 13.1154 -3.52154
LeftShoulder1  1.75379 -2.65132 -22.1669
LeftArm  12.7364 -31.7856 -64.2199
LeftForeArm  152.858 -65.9201 -156.176
LeftHand  -0.00316816 5.45152 16.6853
RightShoulder  3.18336 5.80268 28.255
RightArm  20.1497 12.244 46.2009
RightForeArm  89.9471 80.0714 86.1656
RightHand  -0.0553107 -5.80628 4.77581
LeftUpLeg  -20.5117 14.3921 2.86244
LeftLeg  77.1358 0.416711 3.51846
LeftFoot  15.834 1.44351 -6.39541
LeftToes  -6.27559e-011 -2.10356e-011 8.24929e-012
136
root  -0.951425 39.1837 18.2327 165.277 5.34215 176.048
RightUpLeg  -3.19684 -16.1351 -1.84462
RightLeg  21.3598 2.59961 1.14705
RightFoot  -3.70601 0.156439 -2.72327
RightToes  -1.74623e-010 0 -2.59999e-017
Spine  -2.32807 -0.958862 -0.245817
Spine1  18.2083 -0.400589 1.03299
HEad  0.716274 10.9491 -1.6494
LeftShoulder1  1.71404 -2.58594 -21.7966
LeftArm  17.6969 -30.841 -67.1331
LeftForeArm  154.103 -65.7689 -156.473
LeftHand  -0.0149004 5.35709 18.0047
RightShoulder  3.27555 5.89892 28.902
RightArm  20.0691 7.53595 44.942
RightForeArm  65.9024 78.712 59.5921
RightHand  -0.0683864 -6.03212 6.19366
LeftUpLeg  -8.73348 12.7436 5.36095
LeftLeg  65.4804 2.47915 6.60214
LeftFoot  10.9005 1.13708 -6.10949
LeftToes  -6.27559e-011 -2.10356e-011 8.24929e-012
137
root  -1.0534 39.3036 19.0904 167.251 -1.80124 177.529
RightUpLeg  -4.95179 -15.7832 -1.07933
RightLeg  19.1621 -4.13218 -0.970683
RightFoot  -3.14256 0.095345 -1.6271
RightToes  -1.74623e-010 0 -2.59999e-017
Spine  -3.08065 -1.97439 -2.17069
Spine1  19.1203 -1.80619 1.82189
HEad  -0.723737 7.38686 -0.373618
LeftShoulder1  1.72089 -2.6533 -21.5887
LeftArm  22.6692 -33.1951 -69.7801
LeftForeArm  153.756 -66.3799 -155.786
LeftHand  0.0315323 5.6367 19.0832
RightShoulder  3.32732 5.89002 29.5012
RightArm  18.7032 4.61137 44.2572
RightForeArm  38.4154 72.0138 32.3011
RightHand  -0.00540811 -4.35774 2.27283
LeftUpLeg  1.05054 10.8166 8.85046
LeftLeg  54.9309 5.05896 8.19702
LeftFoot  7.25162 0.729948 -4.72828
LeftToes  -6.27559e-011 -2.10356e-011 8.24929e-012
138
root  -1.2071 39.4078 20.0699 168.111 -11.1435 178.465
RightUpLeg  -5.43447 -16.406 -2.31149
RightLeg  17.1573 -10.4662 -1.75487
RightFoot  -2.89179 0.180207 -2.67841
RightToes  -1.74623e-010 0 -2.59999e-017
Spine  -1.92713 -3.18928 -5.16256
Spine1  19.7316 -3.88765 3.95624
HEad  -2.86908 2.77212 0.455646
LeftShoulder1  1.7954 -2.79668 -22.1687
LeftArm  28.7229 -36.2513 -73.0447
LeftForeArm  150.619 -67.5206 -154.11
LeftHand  0.133453 6.13979 21.5789
RightShoulder  3.2611 5.82806 29.0161
RightArm  16.372 2.87594 44.7162
RightForeArm  20.0922 59.0287 17.1842
RightHand  -0.212477 -1.06729 -5.42945
LeftUpLeg  8.28306 8.23352 12.9752
LeftLeg  45.5869 6.5653 7.55385
LeftFoot  6.45414 0.675365 -4.56861
LeftToes  -6.27559e-011 -2.10356e-011 8.24929e-012
139
root  -1.45411 39.5071 21.1712 169.71 -20.3682 178.14
RightUpLeg  -6.84022 -17.1821 -4.50678
RightLeg  15.803 -15.3565 -2.48316
RightFoot  -1.88157 0.442818 -5.49044
RightToes  -1.74623e-010 0 -2.59999e-017
Spine  -0.975531 -3.72864 -6.80887
Spine1  19.7321 -4.605 3.80202
HEad  -4.73834 -3.17641 2.58129
LeftShoulder1  1.83986 -2.98154 -22.0326
LeftArm  36.3046 -38.2603 -77.9213
LeftForeArm  146.105 -69.04 -151.563
LeftHand  0.208458 6.3861 24.4993
RightShoulder  3.29928 5.87497 29.2529
RightArm  16.1725 2.79824 44.8128
RightForeArm  4.25537 41.1185 8.96682
RightHand  -0.802207 1.82993 -13.0278
LeftUpLeg  12.1803 6.49243 16.0638
LeftLeg  36.5837 6.84417 5.80035
LeftFoot  5.43318 0.666694 -4.72714
LeftToes  -6.27559e-011 -2.10356e-011 8.24929e-012
140
root  -1.87367 39.4957 22.4861 172.324 -29.1435 176.76
RightUpLeg  -9.53885 -19.9076 -7.86751
RightLeg  16.5426 -18.3143 -4.37853
RightFoot  -2.27911 0.471962 -6.1488
RightToes  -1.74623e-010 0 -2.59999e-017
Spine  -1.7464 -3.65237 -6.21781
Spine1  21.3843 -3.60137 1.05218
HEad  -6.75105 -10.7788 5.90917
LeftShoulder1  1.73121 -3.35523 -18.7053
LeftArm  44.2285 -38.7875 -85.7493
LeftForeArm  142.708 -70.8995 -148.202
LeftHand  0.06728 5.69076 26.2457
RightShoulder  3.55938 6.00737 31.5322
RightArm  11.3901 5.96814 41.8326
RightForeArm  -3.49001 18.7171 10.1953
RightHand  -1.0434 2.14488 -16.2907
LeftUpLeg  13.0487 5.65335 17.386
LeftLeg  28.9476 7.01301 4.52279
LeftFoot  6.75972 0.44065 -3.076
LeftToes  -6.27559e-011 -2.10356e-011 8.24929e-012
141
root  -2.34867 39.2338 24.0016 175.281 -37.4119 175.042
RightUpLeg  -12.7431 -23.9786 -11.4063
RightLeg  18.5277 -16.6236 -5.82381
RightFoot  -3.26805 0.284683 -4.34283
RightToes  -1.74623e-010 0 -2.59999e-017
Spine  -2.37692 -2.99923 -5.09842
Spine1  23.6702 -2.41632 -0.352623
HEad  -10.1784 -18.8002 8.29466
LeftShoulder1  1.51131 -3.52593 -14.6246
LeftArm  50.868 -38.7686 -93.3222
LeftForeArm  141.022 -72.0677 -145.822
LeftHand  -0.139405 4.78543 26.3849
RightShoulder  3.63588 5.95707 32.5507
RightArm  -14.892 8.7577 36.431
RightForeArm  14.301 -4.14346 12.5163
RightHand  -0.542198 -0.857773 -13.8486
LeftUpLeg  11.3355 5.364 17.9835
LeftLeg  25.1587 6.79288 3.80343
LeftFoot  10.3449 0.90242 -5.04045
LeftToes  -6.27559e-011 -2.10356e-011 8.24929e-012
142
root  -2.76816 38.5413 25.5914 178.935 -43.5642 172.565
RightUpLeg  -17.3261 -21.6523 -15.5047
RightLeg  22.7873 -8.50453 -4.07621
RightFoot  -1.52273 -0.028546 0.11347
RightToes  -1.74623e-010 0 -2.59999e-017
Spine  -0.298912 -2.21294 -3.53381
Spine1  22.0985 -1.43417 -1.94994
HEad  -14.3229 -24.7712 9.36807
LeftShoulder1  1.35863 -3.07809 -13.692
LeftArm  54.2434 -38.7658 -94.7082
LeftForeArm  141.041 -71.5831 -146.739
LeftHand  -0.125363 4.82378 24.9231
RightShoulder  3.40963 5.7657 30.8893
RightArm  -20.0127 6.81006 33.6311
RightForeArm  21.4395 -7.88004 10.2432
RightHand  -7.11054e-005 -5.71654 -8.76089
LeftUpLeg  8.67671 6.89566 18.0617
LeftLeg  24.9024 4.00045 2.36621
LeftFoot  7.17244 2.36037 -15.1251
LeftToes  -6.27559e-011 -2.10356e-011 8.24929e-012
143
root  -3.09189 37.2322 27.0961 -176.152 -48.4873 168.208
RightUpLeg  -23.1486 -15.6378 -22.0189
RightLeg  30.6378 0.427205 0.107286
RightFoot  0.629994 -0.569124 5.5041
RightToes  -1.74623e-010 0 -2.59999e-017
Spine  3.35617 -2.11438 -3.51725
Spine1  17.779 -1.16422 -4.32263
HEad  -18.3336 -28.1974 10.4729
LeftShoulder1  1.37638 -2.62107 -15.6939
LeftArm  53.6109 -39.4782 -89.267
LeftForeArm  141.249 -70.1728 -149.208
LeftHand  -0.0240745 5.28784 23.8801
RightShoulder  3.18785 5.80428 28.3043
RightArm  -16.846 2.08542 32.4026
RightForeArm  24.7611 -6.94281 10.5906
RightHand  0.0560141 -7.31725 -4.66671
LeftUpLeg  5.04514 10.4865 16.7687
LeftLeg  28.3906 -3.64605 -1.83673
LeftFoot  -6.12237 1.16569 -24.7957
LeftToes  -6.27559e-011 -2.10356e-011 8.24929e-012
